<svg width="20" height="20" viewBox="0 0 20 20" fill="none" xmlns="http://www.w3.org/2000/svg">
<path fill-rule="evenodd" clip-rule="evenodd" d="M12.2777 11.9545C11.981 11.656 11.4996 11.6556 11.2025 11.9538L9.9995 13.1564L8.79759 11.9538C8.50053 11.6557 8.01916 11.6559 7.72242 11.9544C7.42568 12.2529 7.42594 12.7366 7.723 13.0347L9.46215 14.7765C9.75896 15.0745 10.2398 15.0745 10.5367 14.7766L12.277 13.0348C12.5741 12.7367 12.5744 12.253 12.2777 11.9545Z" fill="#8994A3"/>
<path fill-rule="evenodd" clip-rule="evenodd" d="M7.72233 8.04553C8.01904 8.34404 8.5004 8.34436 8.79749 8.04622L10.0005 6.84361L11.2024 8.04616C11.4995 8.34433 11.9808 8.34407 12.2776 8.04558C12.5743 7.7471 12.5741 7.26342 12.277 6.96525L10.5379 5.22346C10.241 4.92554 9.76016 4.92551 9.46332 5.2234L7.72302 6.96519C7.42593 7.26333 7.42562 7.74701 7.72233 8.04553Z" fill="#8994A3"/>
</svg>
