<svg width="14" height="14" viewBox="0 0 14 14" fill="none" xmlns="http://www.w3.org/2000/svg">
<path fill-rule="evenodd" clip-rule="evenodd" d="M7 1.5C3.96243 1.5 1.5 3.96243 1.5 7C1.5 10.0376 3.96243 12.5 7 12.5C10.0376 12.5 12.5 10.0376 12.5 7C12.5 3.96243 10.0376 1.5 7 1.5ZM0 7C0 3.13401 3.13401 0 7 0C10.866 0 14 3.13401 14 7C14 10.866 10.866 14 7 14C3.13401 14 0 10.866 0 7Z" fill="#F23741"/>
<path fill-rule="evenodd" clip-rule="evenodd" d="M7 3C7.41421 3 7.75 3.33579 7.75 3.75V7.25C7.75 7.66421 7.41421 8 7 8C6.58579 8 6.25 7.66421 6.25 7.25V3.75C6.25 3.33579 6.58579 3 7 3Z" fill="#F23741"/>
<path d="M7.89998 10.1C7.89998 10.5971 7.49703 11 6.99998 11C6.50292 11 6.09998 10.5971 6.09998 10.1C6.09998 9.60294 6.50292 9.2 6.99998 9.2C7.49703 9.2 7.89998 9.60294 7.89998 10.1Z" fill="#F23741"/>
</svg>
