<svg width="20" height="20" viewBox="0 0 20 20" fill="none" xmlns="http://www.w3.org/2000/svg">
<path fill-rule="evenodd" clip-rule="evenodd" d="M10 4.5C6.96243 4.5 4.5 6.96243 4.5 10C4.5 13.0376 6.96243 15.5 10 15.5C13.0376 15.5 15.5 13.0376 15.5 10C15.5 6.96243 13.0376 4.5 10 4.5ZM3 10C3 6.13401 6.13401 3 10 3C13.866 3 17 6.13401 17 10C17 13.866 13.866 17 10 17C6.13401 17 3 13.866 3 10Z" fill="#F23741"/>
<path fill-rule="evenodd" clip-rule="evenodd" d="M10 6C10.4142 6 10.75 6.33579 10.75 6.75V10.25C10.75 10.6642 10.4142 11 10 11C9.58579 11 9.25 10.6642 9.25 10.25V6.75C9.25 6.33579 9.58579 6 10 6Z" fill="#F23741"/>
<path d="M10.9 13.1C10.9 13.5971 10.497 14 9.99998 14C9.50292 14 9.09998 13.5971 9.09998 13.1C9.09998 12.6029 9.50292 12.2 9.99998 12.2C10.497 12.2 10.9 12.6029 10.9 13.1Z" fill="#F23741"/>
</svg>
