<svg width="20" height="20" viewBox="0 0 20 20" fill="none" xmlns="http://www.w3.org/2000/svg">
<path fill-rule="evenodd" clip-rule="evenodd" d="M9.99994 3.33334C10.409 3.33334 10.7407 3.66498 10.7407 4.07408V9.25926L15.9258 9.25927C16.3349 9.25927 16.6666 9.59091 16.6666 10C16.6666 10.4091 16.3349 10.7408 15.9258 10.7408L10.7407 10.7407V15.9259C10.7407 16.335 10.409 16.6667 9.99994 16.6667C9.59084 16.6667 9.2592 16.335 9.2592 15.9259V10.7407H4.07399C3.66489 10.7407 3.33325 10.4091 3.33325 10C3.33325 9.5909 3.66489 9.25926 4.07399 9.25926H9.2592V4.07408C9.2592 3.66498 9.59084 3.33334 9.99994 3.33334Z" fill="white"/>
</svg>
