<svg width="20" height="20" viewBox="0 0 20 20" fill="none" xmlns="http://www.w3.org/2000/svg">
<path fill-rule="evenodd" clip-rule="evenodd" d="M5.54961 8.02087C5.54961 5.56148 7.54209 3.56775 9.99993 3.56775C12.455 3.56775 14.4458 5.557 14.4502 8.01259V9.66936C14.4502 9.96344 14.5549 10.2479 14.7456 10.4717L16.2516 12.24C16.6621 12.7218 16.3198 13.4636 15.6871 13.4636H4.3127C3.67999 13.4636 3.33778 12.7218 3.74819 12.24L5.25426 10.4717C5.4449 10.2479 5.54961 9.96344 5.54961 9.66936V8.02426L5.54961 8.02087ZM4.07822 7.63952C4.27469 4.53804 6.85083 2.08337 9.99993 2.08337C13.1491 2.08337 15.7252 4.53811 15.9216 7.63965C15.9295 7.68306 15.9337 7.72779 15.9337 7.77348V8.0113C15.9337 8.01449 15.9337 8.01768 15.9337 8.02087L15.9337 8.02426V9.57824L17.3807 11.2771C18.6119 12.7227 17.5853 14.948 15.6871 14.948H13.6343C13.2907 16.6418 11.7941 17.9167 9.99992 17.9167C8.20573 17.9167 6.70913 16.6418 6.36551 14.948H4.3127C2.41457 14.948 1.38794 12.7227 2.61916 11.2771L4.06617 9.57824V7.77348C4.06617 7.72774 4.0703 7.68297 4.07822 7.63952ZM9.99992 16.4323C9.03107 16.4323 8.20685 15.8127 7.90138 14.948H12.0985C11.793 15.8127 10.9688 16.4323 9.99992 16.4323Z" fill="#818C9A"/>
</svg>
