<svg width="20" height="20" viewBox="0 0 20 20" fill="none" xmlns="http://www.w3.org/2000/svg">
<path fill-rule="evenodd" clip-rule="evenodd" d="M6.09375 1.25C6.52522 1.25 6.875 1.59566 6.875 2.02206V2.28632C7.28434 2.27941 7.73964 2.27941 8.24728 2.27941H11.7527C12.2604 2.27941 12.7157 2.2794 13.125 2.28632V2.02206C13.125 1.59566 13.4748 1.25 13.9062 1.25C14.3377 1.25 14.6875 1.59566 14.6875 2.02206V2.38824C15.1336 2.4547 15.5371 2.56543 15.9161 2.75626C16.7491 3.1757 17.4264 3.84499 17.8508 4.6682C18.115 5.18054 18.2274 5.73836 18.2811 6.3869C18.3333 7.01923 18.3333 7.80214 18.3333 8.78259V12.2468C18.3333 13.2273 18.3333 14.0102 18.2811 14.6425C18.2274 15.2911 18.115 15.8489 17.8508 16.3612C17.4264 17.1844 16.7491 17.8537 15.9161 18.2732C15.3977 18.5342 14.8332 18.6454 14.1769 18.6983C13.5371 18.75 12.7449 18.75 11.7527 18.75H8.24726C7.25514 18.75 6.46291 18.75 5.82306 18.6983C5.16679 18.6454 4.60233 18.5342 4.0839 18.2732C3.25089 17.8537 2.57363 17.1844 2.14919 16.3612C1.88503 15.8489 1.77255 15.2911 1.71893 14.6425C1.66666 14.0102 1.66666 13.2273 1.66667 12.2468V8.78261C1.66666 7.80215 1.66666 7.01923 1.71893 6.3869C1.77255 5.73836 1.88503 5.18054 2.14919 4.6682C2.57363 3.84499 3.25089 3.1757 4.0839 2.75626C4.46288 2.56543 4.86645 2.4547 5.3125 2.38824V2.02206C5.3125 1.59566 5.66228 1.25 6.09375 1.25ZM5.3125 3.95692C5.10101 4.00215 4.93603 4.06019 4.79326 4.13208C4.25425 4.40348 3.81602 4.83655 3.54139 5.36922C3.40817 5.62759 3.32197 5.95959 3.27624 6.51264C3.25458 6.77467 3.24288 7.07098 3.23657 7.41618H16.7634C16.7571 7.07098 16.7454 6.77467 16.7238 6.51264C16.678 5.95959 16.5918 5.62759 16.4586 5.36922C16.184 4.83655 15.7457 4.40348 15.2067 4.13208C15.064 4.06019 14.899 4.00215 14.6875 3.95692V4.08088C14.6875 4.50728 14.3377 4.85294 13.9062 4.85294C13.4748 4.85294 13.125 4.50728 13.125 4.08088V3.83066C12.7274 3.8237 12.2658 3.82353 11.7187 3.82353H8.28125C7.73417 3.82353 7.27262 3.8237 6.875 3.83066V4.08088C6.875 4.50728 6.52522 4.85294 6.09375 4.85294C5.66228 4.85294 5.3125 4.50728 5.3125 4.08088V3.95692ZM16.7708 8.96029H3.22917V12.2132C3.22917 13.2349 3.22977 13.9547 3.27624 14.5168C3.32197 15.0698 3.40817 15.4018 3.54139 15.6602C3.81602 16.1929 4.25425 16.6259 4.79326 16.8973C5.05471 17.029 5.39066 17.1142 5.95029 17.1594C6.51905 17.2053 7.24743 17.2059 8.28125 17.2059H11.7187C12.7526 17.2059 13.4809 17.2053 14.0497 17.1594C14.6093 17.1142 14.9453 17.029 15.2067 16.8973C15.7457 16.6259 16.184 16.1929 16.4586 15.6602C16.5918 15.4018 16.678 15.0698 16.7238 14.5168C16.7702 13.9547 16.7708 13.2349 16.7708 12.2132V8.96029Z" fill="#8994A3"/>
<path d="M15.2083 14.1176C15.2083 14.9704 14.5088 15.6618 13.6458 15.6618C12.7829 15.6618 12.0833 14.9704 12.0833 14.1176C12.0833 13.2649 12.7829 12.5735 13.6458 12.5735C14.5088 12.5735 15.2083 13.2649 15.2083 14.1176Z" fill="#8994A3"/>
</svg>
