<svg width="20" height="20" viewBox="0 0 20 20" fill="none" xmlns="http://www.w3.org/2000/svg">
<g clip-path="url(#clip0_2_2595)">
<path fill-rule="evenodd" clip-rule="evenodd" d="M4.79968 4.79967C5.08813 4.51121 5.55581 4.51121 5.84426 4.79967L10 8.9554L14.1557 4.79967C14.4442 4.51121 14.9119 4.51121 15.2003 4.79967C15.4888 5.08813 15.4888 5.5558 15.2003 5.84426L11.0446 9.99999L15.2003 14.1557C15.4888 14.4442 15.4888 14.9119 15.2003 15.2003C14.9119 15.4888 14.4442 15.4888 14.1557 15.2003L10 11.0446L5.84426 15.2003C5.55581 15.4888 5.08813 15.4888 4.79968 15.2003C4.51122 14.9119 4.51122 14.4442 4.79968 14.1557L8.95541 9.99999L4.79968 5.84426C4.51122 5.5558 4.51122 5.08813 4.79968 4.79967Z" fill="#A8B1BE"/>
</g>
<defs>
<clipPath id="clip0_2_2595">
<rect width="20" height="20" fill="white"/>
</clipPath>
</defs>
</svg>
