<svg width="20" height="20" viewBox="0 0 20 20" fill="none" xmlns="http://www.w3.org/2000/svg">
<path fill-rule="evenodd" clip-rule="evenodd" d="M9.84008 3.9784C9.53348 4.28321 9.53316 4.77772 9.83937 5.08292L14.7731 10.0005L9.83942 14.917C9.53319 15.2222 9.53346 15.7167 9.84002 16.0215C10.1466 16.3264 10.6434 16.3261 10.9496 16.021L16.4371 10.5526C16.7431 10.2476 16.7431 9.75363 16.4371 9.44869L10.9496 3.97911C10.6434 3.67391 10.1467 3.67359 9.84008 3.9784Z" fill="#697481"/>
<path fill-rule="evenodd" clip-rule="evenodd" d="M3.56341 3.9784C3.25681 4.28321 3.25649 4.77772 3.56269 5.08292L8.49641 10.0005L3.56275 14.917C3.25652 15.2222 3.25678 15.7167 3.56335 16.0215C3.86991 16.3264 4.36668 16.3261 4.67292 16.0209L10.1604 10.5526C10.4664 10.2476 10.4664 9.75363 10.1605 9.44868L4.67298 3.97911C4.36678 3.67391 3.87 3.67359 3.56341 3.9784Z" fill="#697481"/>
</svg>
