<svg width="20" height="20" viewBox="0 0 20 20" fill="none" xmlns="http://www.w3.org/2000/svg">
<path fill-rule="evenodd" clip-rule="evenodd" d="M4.16675 17.5757C4.16675 17.1573 4.49317 16.8182 4.89584 16.8182H15.1032C15.5058 16.8182 15.8323 17.1573 15.8323 17.5757C15.8323 17.9941 15.5058 18.3333 15.1032 18.3333H4.89584C4.49317 18.3333 4.16675 17.9941 4.16675 17.5757Z" fill="#0077FF"/>
<path d="M10.7279 2.39979C10.7279 1.99489 10.4018 1.66666 9.99949 1.66666C9.59719 1.66666 9.27105 1.99489 9.27105 2.39979L9.27105 12.22L5.41139 8.20959C5.12666 7.91374 4.66502 7.91374 4.38029 8.20959C4.09557 8.50545 4.09557 8.98512 4.38029 9.28097L9.47941 14.5793C9.76414 14.8751 10.2258 14.8751 10.5105 14.5793L15.6199 9.27034C15.9046 8.97449 15.9046 8.49482 15.6199 8.19896C15.3351 7.90311 14.8735 7.90311 14.5888 8.19896L10.7279 12.2106L10.7279 2.39979Z" fill="#0077FF"/>
</svg>
