<svg width="20" height="20" viewBox="0 0 20 20" fill="none" xmlns="http://www.w3.org/2000/svg">
<path fill-rule="evenodd" clip-rule="evenodd" d="M6.7265 3.51947C6.66224 3.50454 6.58553 3.50001 6.19541 3.50001C5.50917 3.50001 5.03795 3.50055 4.67219 3.52936C4.31471 3.55752 4.122 3.6092 3.98238 3.67735C3.6318 3.84847 3.34846 4.13181 3.17734 4.48239C3.10919 4.62201 3.05751 4.81472 3.02935 5.1722C3.00054 5.53796 3 6.00918 3 6.69542V12.25C3 12.9625 3.00058 13.4517 3.03157 13.8309C3.06184 14.2014 3.11735 14.4005 3.19074 14.5445C3.35852 14.8738 3.62623 15.1415 3.95552 15.3093C4.09956 15.3827 4.29858 15.4382 4.66908 15.4684C5.04833 15.4994 5.53756 15.5 6.25 15.5H13.75C14.4624 15.5 14.9517 15.4994 15.3309 15.4684C15.7014 15.4382 15.9004 15.3827 16.0445 15.3093C16.3738 15.1415 16.6415 14.8738 16.8093 14.5445C16.8827 14.4005 16.9382 14.2014 16.9684 13.8309C16.9994 13.4517 17 12.9624 17 12.25V8.88159C17 8.16915 16.9994 7.67992 16.9684 7.30067C16.9382 6.93017 16.8827 6.73114 16.8093 6.58711C16.6415 6.25782 16.3738 5.99011 16.0445 5.82233C15.9004 5.74894 15.7014 5.69343 15.3309 5.66316C14.9517 5.63217 14.4624 5.63159 13.75 5.63159H10.2955C10.2744 5.63159 10.2534 5.63161 10.2327 5.63163C9.92574 5.63192 9.65514 5.63217 9.39247 5.56875C9.16172 5.51305 8.94123 5.42117 8.7392 5.29654C8.50922 5.15467 8.31887 4.96235 8.10297 4.7442C8.08835 4.72943 8.07361 4.71454 8.05873 4.69954L7.3438 3.97853C7.06911 3.70151 7.01188 3.65023 6.95603 3.61511C6.88538 3.57068 6.8078 3.53835 6.7265 3.51947ZM6.25597 1.99997C6.55171 1.99971 6.81239 1.99947 7.06593 2.05838C7.30983 2.11504 7.54257 2.21202 7.75454 2.34531C7.97489 2.48388 8.15826 2.66914 8.36631 2.87933C8.38039 2.89356 8.3946 2.90791 8.40893 2.92237L9.12387 3.64337C9.40899 3.93092 9.46844 3.98395 9.52673 4.01991C9.59407 4.06145 9.66757 4.09207 9.74448 4.11064C9.81106 4.12672 9.89058 4.13159 10.2955 4.13159L13.7814 4.13159C14.4548 4.13158 15.0055 4.13157 15.4531 4.16814C15.9163 4.20599 16.3347 4.28673 16.7255 4.48582C17.337 4.79741 17.8342 5.29459 18.1458 5.90612C18.3449 6.29686 18.4256 6.71526 18.4634 7.17852C18.5 7.62608 18.5 8.17678 18.5 8.85015V12.2814C18.5 12.9548 18.5 13.5055 18.4634 13.9531C18.4256 14.4163 18.3449 14.8347 18.1458 15.2255C17.8342 15.837 17.337 16.3342 16.7255 16.6458C16.3347 16.8449 15.9163 16.9256 15.4531 16.9635C15.0055 17 14.4548 17 13.7814 17H6.21856C5.54519 17 4.99449 17 4.54693 16.9635C4.08367 16.9256 3.66527 16.8449 3.27453 16.6458C2.663 16.3342 2.16582 15.837 1.85423 15.2255C1.65514 14.8347 1.5744 14.4163 1.53655 13.9531C1.49998 13.5055 1.49999 12.9548 1.5 12.2814V6.66517C1.49999 6.01654 1.49999 5.48605 1.53398 5.05441C1.56916 4.6078 1.64416 4.20383 1.82935 3.82442C2.14714 3.17336 2.67335 2.64715 3.32441 2.32936C3.70382 2.14417 4.10779 2.06917 4.5544 2.03399C4.98604 2 5.51653 2 6.16517 2.00001L6.19541 2.00001C6.21576 2.00001 6.23595 1.99999 6.25597 1.99997Z" fill="#0077FF"/>
</svg>
