<svg width="20" height="20" viewBox="0 0 20 20" fill="none" xmlns="http://www.w3.org/2000/svg">
<path fill-rule="evenodd" clip-rule="evenodd" d="M9.65385 2.58466C9.87081 2.47178 10.1292 2.47178 10.3462 2.58466L18.3462 6.74682C18.5943 6.87593 18.75 7.13242 18.75 7.41216V12.3311C18.75 12.7453 18.4142 13.0811 18 13.0811C17.5858 13.0811 17.25 12.7453 17.25 12.3311V8.75374L16.0833 9.47108V13.9707C16.0833 14.2313 15.9481 14.4731 15.7262 14.6096L10.3928 17.8889C10.1519 18.037 9.84811 18.037 9.60717 17.8889L4.27384 14.6096C4.05189 14.4731 3.91667 14.2313 3.91667 13.9707V9.47108L1.60717 8.05105C1.37707 7.90957 1.24082 7.65528 1.25048 7.38534C1.26014 7.11539 1.41422 6.87149 1.65385 6.74682L9.65385 2.58466ZM5.41667 10.3934V13.5514L10 16.3696L14.5833 13.5514V10.3934L10.3928 12.97C10.1519 13.1181 9.84811 13.1181 9.60717 12.97L5.41667 10.3934ZM16.4796 7.46657L10 4.09543L3.52041 7.46657L10 11.4507L16.4796 7.46657Z" fill="#252629"/>
</svg>
