<svg width="20" height="20" viewBox="0 0 20 20" fill="none" xmlns="http://www.w3.org/2000/svg">
<path fill-rule="evenodd" clip-rule="evenodd" d="M5.54994 12.282C5.76531 12.7011 5.73611 13.2244 5.40288 13.5577C5.00312 13.9574 4.33908 13.9234 4.05629 13.4339C3.47345 12.4249 3.13992 11.2539 3.13992 10.0049C3.13992 8.74909 3.47713 7.57202 4.06594 6.55931C4.34889 6.07266 5.00991 6.03951 5.40796 6.43756C5.74056 6.77017 5.7694 7.29263 5.55373 7.71065C5.19983 8.39659 5 9.17496 5 10C5 10.8221 5.1984 11.5978 5.54994 12.282ZM7.71943 14.4508C7.29939 14.2351 6.77507 14.2644 6.4412 14.5982C6.04121 14.9982 6.07452 15.6625 6.56376 15.9465C7.57547 16.5337 8.75093 16.8699 10.0049 16.8699C11.258 16.8699 12.4326 16.5342 13.4438 15.9478C13.9344 15.6633 13.9678 14.9974 13.5667 14.5963C13.2317 14.2613 12.7053 14.2323 12.2839 14.4491C11.5993 14.8012 10.8229 15 10 15C9.17848 15 8.40323 14.8019 7.71943 14.4508ZM14.4546 12.2732C14.2392 12.6944 14.2688 13.2195 14.6033 13.554C15.005 13.9557 15.6723 13.9215 15.9561 13.4294C16.5374 12.4215 16.8699 11.252 16.8699 10.0049C16.8699 8.75093 16.5337 7.57547 15.9465 6.56376C15.6625 6.07452 14.9982 6.04121 14.5982 6.4412C14.2644 6.77507 14.2351 7.29939 14.4508 7.71943C14.8019 8.40323 15 9.17848 15 10C15 10.8186 14.8033 11.5912 14.4546 12.2732ZM12.282 5.54994C12.7011 5.76531 13.2244 5.73611 13.5577 5.40288C13.9574 5.00312 13.9234 4.33908 13.4339 4.05629C12.4249 3.47345 11.2539 3.13992 10.0049 3.13992C8.75501 3.13992 7.58312 3.47396 6.57364 4.05763C6.08546 4.3399 6.05153 5.00224 6.45027 5.40098C6.78229 5.733 7.30358 5.76248 7.72139 5.5482C8.40471 5.19775 9.17926 5 10 5C10.8221 5 11.5978 5.1984 12.282 5.54994ZM18.3399 10.0049C18.3399 14.6082 14.6082 18.3399 10.0049 18.3399C5.40163 18.3399 1.66992 14.6082 1.66992 10.0049C1.66992 5.40163 5.40163 1.66992 10.0049 1.66992C14.6082 1.66992 18.3399 5.40163 18.3399 10.0049ZM13.53 10C13.53 11.9496 11.9496 13.53 10 13.53C8.05044 13.53 6.47 11.9496 6.47 10C6.47 8.05044 8.05044 6.47 10 6.47C11.9496 6.47 13.53 8.05044 13.53 10Z" fill="#818C9A"/>
</svg>
