<svg width="20" height="20" viewBox="0 0 20 20" fill="none" xmlns="http://www.w3.org/2000/svg">
<path d="M6.66662 4.91663C6.66662 4.50242 7.00241 4.16663 7.41662 4.16663H16.75C17.1642 4.16663 17.5 4.50242 17.5 4.91663C17.5 5.33085 17.1642 5.66663 16.75 5.66663H7.41662C7.00241 5.66663 6.66662 5.33085 6.66662 4.91663Z" fill="#252629"/>
<path d="M6.66662 9.99994C6.66662 9.58573 7.00241 9.24994 7.41662 9.24994H16.75C17.1642 9.24994 17.5 9.58573 17.5 9.99994C17.5 10.4142 17.1642 10.7499 16.75 10.7499H7.41662C7.00241 10.7499 6.66662 10.4142 6.66662 9.99994Z" fill="#252629"/>
<path d="M6.66662 15.0833C6.66662 14.669 7.00241 14.3333 7.41662 14.3333H16.75C17.1642 14.3333 17.5 14.669 17.5 15.0833C17.5 15.4975 17.1642 15.8333 16.75 15.8333H7.41662C7.00241 15.8333 6.66662 15.4975 6.66662 15.0833Z" fill="#252629"/>
<path d="M2.69766 6.33C2.95781 6.33 3.09609 6.19055 3.19219 5.83471L3.23203 5.68564H4.2375L4.27734 5.83471C4.37109 6.18093 4.52344 6.33 4.78359 6.33C5.06484 6.33 5.25 6.15689 5.25 5.89241C5.25 5.78903 5.22422 5.664 5.16797 5.48368L4.60781 3.7213C4.44141 3.19956 4.20703 3 3.76172 3C3.31641 3 3.07734 3.20196 2.91094 3.7213L2.34844 5.48368C2.27578 5.70487 2.25 5.82269 2.25 5.91886C2.25 6.15929 2.43516 6.33 2.69766 6.33ZM3.41953 4.97636L3.71484 3.85835H3.76641L4.05469 4.97636H3.41953Z" fill="#252629"/>
<path d="M4.02647 11.33C4.76892 11.33 5.25493 10.8933 5.25493 10.2273C5.25493 9.58084 4.76892 9.16855 4.01181 9.16855H3.53069V8.80018H4.55888C4.7738 8.80018 4.93255 8.63185 4.93255 8.40009C4.93255 8.16833 4.7738 8 4.55888 8H3.01781C2.70031 8 2.50493 8.1976 2.50493 8.51963V10.8128C2.50493 11.1348 2.70031 11.33 3.01781 11.33H4.02647ZM3.53069 10.5737V9.8809H3.79689C4.05822 9.8809 4.21941 10.0126 4.21941 10.2273C4.21941 10.4444 4.0631 10.5737 3.79689 10.5737H3.53069Z" fill="#252629"/>
<path d="M2.50493 15.8128C2.50493 16.1348 2.69467 16.33 3.003 16.33H4.13196C4.79131 16.33 5.2538 15.9397 5.2538 15.3786C5.2538 14.9346 4.93361 14.5955 4.50433 14.5833V14.5369C4.87195 14.4906 5.11624 14.2027 5.11624 13.8173C5.11624 13.3147 4.71304 13 4.06792 13H3.003C2.69467 13 2.50493 13.1976 2.50493 13.5196V15.8128ZM3.48921 14.3076V13.6831H3.7928C4.02286 13.6831 4.15331 13.8124 4.15331 13.9929C4.15331 14.1539 4.04895 14.3076 3.79754 14.3076H3.48921ZM3.48921 15.6469V14.9126H3.82363C4.11298 14.9126 4.2458 15.0639 4.2458 15.2737C4.2458 15.4762 4.12247 15.6469 3.82837 15.6469H3.48921Z" fill="#252629"/>
</svg>
