<svg width="20" height="20" viewBox="0 0 20 20" fill="none" xmlns="http://www.w3.org/2000/svg">
<path fill-rule="evenodd" clip-rule="evenodd" d="M9 4C6.23858 4 4 6.23858 4 9C4 11.7614 6.23858 14 9 14C11.7614 14 14 11.7614 14 9C14 6.23858 11.7614 4 9 4ZM2.5 9C2.5 5.41015 5.41015 2.5 9 2.5C12.5898 2.5 15.5 5.41015 15.5 9C15.5 10.5247 14.975 11.9268 14.096 13.0353L17.2803 16.2197C17.5732 16.5126 17.5732 16.9874 17.2803 17.2803C16.9874 17.5732 16.5126 17.5732 16.2197 17.2803L13.0353 14.096C11.9268 14.975 10.5247 15.5 9 15.5C5.41015 15.5 2.5 12.5898 2.5 9Z" fill="#818C9A"/>
</svg>
