<svg width="20" height="20" viewBox="0 0 20 20" fill="none" xmlns="http://www.w3.org/2000/svg">
<path fill-rule="evenodd" clip-rule="evenodd" d="M10 4.5C6.96243 4.5 4.5 6.96243 4.5 10C4.5 13.0376 6.96243 15.5 10 15.5C13.0376 15.5 15.5 13.0376 15.5 10C15.5 6.96243 13.0376 4.5 10 4.5ZM3 10C3 6.13401 6.13401 3 10 3C13.866 3 17 6.13401 17 10C17 13.866 13.866 17 10 17C6.13401 17 3 13.866 3 10Z" fill="#008CEF"/>
<path fill-rule="evenodd" clip-rule="evenodd" d="M9.25 6C9.66421 6 10 6.33579 10 6.75V10.2671L12.3104 11.3172C12.6874 11.4886 12.8542 11.9333 12.6828 12.3104C12.5114 12.6874 12.0667 12.8542 11.6896 12.6828L8.93965 11.4328C8.6719 11.3111 8.5 11.0441 8.5 10.75V6.75C8.5 6.33579 8.83579 6 9.25 6Z" fill="#008CEF"/>
</svg>
