<svg width="20" height="20" viewBox="0 0 20 20" fill="none" xmlns="http://www.w3.org/2000/svg">
<path fill-rule="evenodd" clip-rule="evenodd" d="M10 4.5C6.96243 4.5 4.5 6.96243 4.5 10C4.5 13.0376 6.96243 15.5 10 15.5C13.0376 15.5 15.5 13.0376 15.5 10C15.5 6.96243 13.0376 4.5 10 4.5ZM3 10C3 6.13401 6.13401 3 10 3C13.866 3 17 6.13401 17 10C17 13.866 13.866 17 10 17C6.13401 17 3 13.866 3 10ZM13.0303 7.93934C13.3232 8.23223 13.3232 8.70711 13.0303 9L9.53033 12.5C9.23744 12.7929 8.76256 12.7929 8.46967 12.5L6.96967 11C6.67678 10.7071 6.67678 10.2322 6.96967 9.93934C7.26256 9.64645 7.73744 9.64645 8.03033 9.93934L9 10.909L11.9697 7.93934C12.2626 7.64645 12.7374 7.64645 13.0303 7.93934Z" fill="#0BAD41"/>
</svg>
