<svg width="20" height="20" viewBox="0 0 20 20" fill="none" xmlns="http://www.w3.org/2000/svg">
<path fill-rule="evenodd" clip-rule="evenodd" d="M10 4.5C6.96243 4.5 4.5 6.96243 4.5 10C4.5 13.0376 6.96243 15.5 10 15.5C13.0376 15.5 15.5 13.0376 15.5 10C15.5 6.96243 13.0376 4.5 10 4.5ZM3 10C3 6.13401 6.13401 3 10 3C13.866 3 17 6.13401 17 10C17 13.866 13.866 17 10 17C6.13401 17 3 13.866 3 10ZM7.21967 7.21967C7.51256 6.92678 7.98744 6.92678 8.28033 7.21967L10 8.93934L11.7197 7.21967C12.0126 6.92678 12.4874 6.92678 12.7803 7.21967C13.0732 7.51256 13.0732 7.98744 12.7803 8.28033L11.0607 10L12.7803 11.7197C13.0732 12.0126 13.0732 12.4874 12.7803 12.7803C12.4874 13.0732 12.0126 13.0732 11.7197 12.7803L10 11.0607L8.28033 12.7803C7.98744 13.0732 7.51256 13.0732 7.21967 12.7803C6.92678 12.4874 6.92678 12.0126 7.21967 11.7197L8.93934 10L7.21967 8.28033C6.92678 7.98744 6.92678 7.51256 7.21967 7.21967Z" fill="#F23741"/>
</svg>
