<svg width="84" height="29" viewBox="0 0 84 29" fill="none" xmlns="http://www.w3.org/2000/svg">
<path d="M28.2739 13.4318C28.2739 7.10675 28.2739 3.94425 26.309 1.97933C24.3441 0.0144043 21.1816 0.0144043 14.8566 0.0144043H13.4686C7.14358 0.0144043 3.98108 0.0144043 2.01616 1.97933C0.0512345 3.94425 0.0512332 7.10675 0.0512332 13.4317V14.8197C0.0512332 21.1447 0.0512345 24.3072 2.01616 26.2722C3.98108 28.2371 7.14358 28.2371 13.4686 28.2371H14.8566C21.1816 28.2371 24.3441 28.2371 26.309 26.2722C28.2739 24.3072 28.2739 21.1447 28.2739 14.8198V13.4318Z" fill="#0077FF"/>
<path d="M22.6232 0.320068C22.1949 1.13125 21.7269 2.10343 21.18 3.23943L15.1817 15.6988C13.432 19.3333 12.5571 21.1506 13.387 22.4712C14.2169 23.7918 16.2338 23.7918 20.2676 23.7918H27.7028C28.2724 21.8065 28.2724 19.0057 28.2724 14.8195V13.4315C28.2724 7.10648 28.2724 3.94398 26.3075 1.97906C25.3997 1.07121 24.2362 0.582813 22.6232 0.320068Z" fill="#00D3E6"/>
<path d="M17.7236 10.4191L15.182 15.6985C14.062 18.0249 13.3005 19.6068 13.115 20.7904C10.1986 20.7737 8.65096 20.6456 7.91437 19.6592C7.78159 19.4814 7.67025 19.2886 7.58265 19.0847C7.02416 17.7847 7.98302 16.1239 9.90076 12.8023C11.8185 9.4807 12.7774 7.81989 14.1824 7.6536C14.4028 7.62751 14.6254 7.62751 14.8458 7.6536C15.8613 7.77379 16.6438 8.67471 17.7236 10.4191Z" fill="white"/>
<path d="M0.000488281 13.5469C0.000488281 7.16083 0.000488281 3.9678 1.98439 1.9839C3.96828 0 7.16132 0 13.5474 0H14.6763C21.0624 0 24.2554 0 26.2393 1.9839C28.2232 3.9678 28.2232 7.16083 28.2232 13.5469V14.6758C28.2232 21.0619 28.2232 24.2549 26.2393 26.2388C24.2554 28.2227 21.0624 28.2227 14.6763 28.2227H13.5474C7.16132 28.2227 3.96828 28.2227 1.98439 26.2388C0.000488281 24.2549 0.000488281 21.0619 0.000488281 14.6758V13.5469Z" fill="#0077FF"/>
<path d="M15.0173 20.3322C8.58491 20.3322 4.91599 15.9224 4.76311 8.58447H7.9852C8.09103 13.9703 10.4664 16.2516 12.3479 16.722V8.58447H15.3819V13.2294C17.2399 13.0295 19.1918 10.9128 19.8503 8.58447H22.8843C22.3787 11.4538 20.262 13.5705 18.7568 14.4407C20.262 15.1462 22.6728 16.9925 23.59 20.3322H20.2502C19.5329 18.0979 17.7456 16.3692 15.3819 16.134V20.3322H15.0173Z" fill="white"/>
<path d="M46.5447 18.7364L46.3327 20.8416H44.2761C43.0747 20.8416 42.163 20.5609 41.5411 19.9995C40.9192 19.4241 40.6083 18.5961 40.6083 17.5154V11.9998H38.8062V9.8946H40.6083L41.2231 6.73682H43.0464V9.8946H46.3327V11.9998H43.0464V17.5154C43.0464 18.3294 43.4563 18.7364 44.2761 18.7364H46.5447Z" fill="black"/>
<path d="M59.0668 15.2418C59.0668 15.4523 59.0526 15.7119 59.0244 16.0207H50.1622C50.2752 16.8768 50.6286 17.5645 51.2222 18.0838C51.8159 18.589 52.5721 18.8417 53.4908 18.8417C54.1127 18.8417 54.671 18.7224 55.1657 18.4838C55.6745 18.2452 56.0632 17.9224 56.3318 17.5154L58.6215 17.8943C58.2258 18.9048 57.5403 19.6837 56.565 20.2311C55.6039 20.7784 54.5297 21.0521 53.3424 21.0521C52.2399 21.0521 51.2505 20.8135 50.3742 20.3363C49.512 19.8451 48.8335 19.1715 48.3388 18.3154C47.8583 17.4452 47.618 16.4628 47.618 15.3681C47.618 14.2734 47.8583 13.298 48.3388 12.4419C48.8335 11.5717 49.512 10.8981 50.3742 10.4209C51.2505 9.92969 52.2399 9.68408 53.3424 9.68408C54.4449 9.68408 55.4272 9.92969 56.2894 10.4209C57.1657 10.8981 57.8442 11.5647 58.3247 12.4208C58.8194 13.2629 59.0668 14.2032 59.0668 15.2418ZM53.3424 11.7893C52.6074 11.7893 51.9643 11.9998 51.4131 12.4208C50.876 12.8419 50.5085 13.4103 50.3106 14.126H56.4166C56.2046 13.4243 55.823 12.8629 55.2717 12.4419C54.7346 12.0068 54.0915 11.7893 53.3424 11.7893Z" fill="black"/>
<path d="M66.0762 21.0521C64.9737 21.0521 63.9843 20.8135 63.108 20.3363C62.2316 19.8451 61.5461 19.1715 61.0514 18.3154C60.5709 17.4452 60.3306 16.4628 60.3306 15.3681C60.3306 14.2734 60.5709 13.298 61.0514 12.4419C61.5461 11.5717 62.2316 10.8981 63.108 10.4209C63.9843 9.92969 64.9737 9.68408 66.0762 9.68408C67.2917 9.68408 68.3659 9.98583 69.2988 10.5893C70.2458 11.1788 70.9172 12.0208 71.3129 13.1155L69.0232 13.4945C68.7829 13.0173 68.4083 12.6314 67.8995 12.3366C67.4048 12.0419 66.8465 11.8945 66.2246 11.8945C65.2352 11.8945 64.4295 12.2173 63.8076 12.8629C63.1857 13.5085 62.8747 14.3436 62.8747 15.3681C62.8747 16.3926 63.1857 17.2277 63.8076 17.8733C64.4295 18.5189 65.2352 18.8417 66.2246 18.8417C66.8747 18.8417 67.4543 18.6943 67.9631 18.3996C68.4719 18.0908 68.8535 17.6908 69.108 17.1996L71.3977 17.5785C71.002 18.6873 70.3164 19.5434 69.3412 20.1469C68.3659 20.7504 67.2776 21.0521 66.0762 21.0521Z" fill="black"/>
<path d="M73.2055 20.8416V6H75.6436V11.3261C75.997 10.8069 76.4564 10.4069 77.0217 10.1262C77.5871 9.83145 78.1878 9.68408 78.8238 9.68408C79.6154 9.68408 80.3292 9.88057 80.9652 10.2735C81.6012 10.6665 82.103 11.2068 82.4705 11.8945C82.838 12.5822 83.0217 13.3612 83.0217 14.2313V20.8416H80.5836V14.505C80.5836 13.719 80.3574 13.0805 79.9051 12.5892C79.4528 12.098 78.8733 11.8524 78.1666 11.8524C77.4316 11.8524 76.8238 12.1051 76.3433 12.6103C75.8769 13.1015 75.6436 13.7331 75.6436 14.505V20.8416H73.2055Z" fill="black"/>
</svg>
