<svg width="32" height="32" viewBox="0 0 32 32" fill="none" xmlns="http://www.w3.org/2000/svg">
<path d="M0 15.36C0 8.11923 0 4.49884 2.24942 2.24942C4.49884 0 8.11923 0 15.36 0H16.64C23.8808 0 27.5012 0 29.7506 2.24942C32 4.49884 32 8.11923 32 15.36V16.64C32 23.8808 32 27.5012 29.7506 29.7506C27.5012 32 23.8808 32 16.64 32H15.36C8.11923 32 4.49884 32 2.24942 29.7506C0 27.5012 0 23.8808 0 16.64V15.36Z" fill="#0077FF"/>
<path d="M17.0273 23.052C9.73393 23.052 5.57397 18.0521 5.40063 9.73206H9.05396C9.17396 15.8387 11.8672 18.4254 14.0006 18.9587V9.73206H17.4407V14.9987C19.5473 14.772 21.7604 12.3721 22.5071 9.73206H25.9472C25.3738 12.9854 22.9738 15.3854 21.2672 16.372C22.9738 17.172 25.7073 19.2654 26.7473 23.052H22.9605C22.1472 20.5187 20.1207 18.5587 17.4407 18.292V23.052H17.0273Z" fill="white"/>
</svg>
